<svg width="16" height="16" viewBox="0 0 16 16" fill="none" xmlns="http://www.w3.org/2000/svg">
<path d="M3.38596 10.9076L3.33093 11.1087L2.71095 13.3738L5.04574 12.761L5.23768 12.7107L5.41193 12.8056C6.21317 13.2423 7.11502 13.4727 8.033 13.4733H8.03533C11.057 13.4733 13.5187 11.0127 13.52 7.98867L3.38596 10.9076ZM3.38596 10.9076L3.28187 10.727M3.38596 10.9076L3.28187 10.727M3.28187 10.727C2.80248 9.89524 2.55004 8.95213 2.55 7.98487L3.28187 10.727ZM8.03333 13.4633H8.03296C7.05128 13.4626 6.08774 13.1994 5.24591 12.6992L5.24548 12.6989L5.2442 12.6981L3.56423 13.139L2.72657 13.3588L2.95505 12.5234L3.39913 10.8999L3.39806 10.8982L8.03333 13.4633ZM8.03333 13.4633H8.03533C11.053 13.4633 13.5079 11.0073 13.5093 7.98892C13.5101 6.52684 12.94 5.15046 11.9079 4.11616L11.9077 4.11591C10.8747 3.08216 9.49889 2.5114 8.03758 2.51067H8.03733C5.01723 2.51067 2.56213 4.96576 2.56067 7.98442V7.98467M8.03333 13.4633L2.56067 7.98467M2.56067 7.98467C2.56067 9.01804 2.8495 10.0256 3.39784 10.8978L2.56067 7.98467ZM5.51733 5.40733L5.88536 5.74579C5.89335 5.7371 5.89994 5.7319 5.90458 5.72875C5.90933 5.72553 5.9133 5.72359 5.91632 5.72239C5.91857 5.72149 5.92039 5.72096 5.9216 5.72067C5.9832 5.7207 6.04281 5.72127 6.09747 5.72263C6.13052 5.80245 6.17408 5.90841 6.22124 6.02311C6.32722 6.28088 6.45134 6.58282 6.51518 6.73142C6.5136 6.73439 6.51216 6.73704 6.51079 6.73948C6.50398 6.75167 6.49772 6.76155 6.4833 6.77842C6.43665 6.83298 6.40298 6.87449 6.37584 6.90796C6.34 6.95214 6.31553 6.98231 6.28754 7.01003L6.28735 7.01021C6.28583 7.01173 6.2839 7.0136 6.28161 7.01582C6.24778 7.04867 6.13558 7.15762 6.07687 7.31499C5.9963 7.53095 6.0382 7.74527 6.14123 7.92224C6.23701 8.08674 6.56861 8.63029 7.07249 9.07978L7.07261 9.07989C7.62193 9.5696 8.12568 9.7845 8.31774 9.86644C8.34809 9.87939 8.37066 9.88901 8.38439 9.89588C8.49161 9.94949 8.65726 10.0154 8.85279 9.99194C9.06923 9.96598 9.21678 9.84536 9.3086 9.74023C9.36869 9.67142 9.55323 9.4562 9.69462 9.27528L10.5396 9.68414C10.5396 9.68415 10.5396 9.68415 10.5396 9.68415C10.5465 9.68761 10.5533 9.69103 10.5601 9.69437C10.5483 9.76869 10.5271 9.85872 10.4924 9.95595C10.4926 9.95532 10.4926 9.95536 10.4923 9.95605C10.4902 9.95994 10.4773 9.98464 10.4362 10.0266C10.3907 10.0731 10.3269 10.124 10.2499 10.1733C10.0847 10.2792 9.93149 10.3323 9.88114 10.34C9.66319 10.3721 9.42179 10.381 9.16419 10.2991C8.95394 10.2318 8.693 10.1455 8.35762 10.001C7.10259 9.45882 6.23737 8.23147 6.03919 7.95034C6.02386 7.92861 6.01253 7.91253 6.00531 7.90286L6.00359 7.90055C5.96829 7.8533 5.83863 7.67975 5.71717 7.44049C5.59004 7.19009 5.494 6.91014 5.494 6.65467C5.494 6.16455 5.71597 5.92715 5.85571 5.77771C5.86637 5.76631 5.87655 5.75542 5.88611 5.74497L5.51733 5.40733ZM5.51733 5.40733C5.65467 5.258 5.81667 5.22067 5.91667 5.22067C6.016 5.22067 6.116 5.222 6.20267 5.226L5.51733 5.40733ZM11.9149 4.10868C10.8787 3.07129 9.50335 2.50067 8.03533 2.5L11.9149 4.10868ZM11.9149 4.10868C12.9511 5.14609 13.5199 6.52221 13.52 7.98846L11.9149 4.10868ZM2.55 7.98467C2.55133 4.96077 5.0128 2.50011 8.03513 2.5L2.55 7.98467Z" fill="#D8D7CE" stroke="#858479"/>
</svg>
